<mxfile host="65bd71144e">
    <diagram id="DKFJayGLP2oGCjJ00Zy6" name="PÃ¡gina-1">
        <mxGraphModel dx="2168" dy="1535" grid="1" gridSize="10" guides="1" tooltips="1" connect="1" arrows="1" fold="1" page="1" pageScale="1" pageWidth="1169" pageHeight="827" math="0" shadow="0">
            <root>
                <mxCell id="0"/>
                <mxCell id="1" parent="0"/>
                <mxCell id="2" value="Cliente" style="swimlane;fontStyle=0;childLayout=stackLayout;horizontal=1;startSize=26;fillColor=none;horizontalStack=0;resizeParent=1;resizeParentMax=0;resizeLast=0;collapsible=1;marginBottom=0;" parent="1" vertex="1">
                    <mxGeometry x="-60" y="276" width="170" height="364" as="geometry"/>
                </mxCell>
                <mxCell id="3" value="_id: ObjectId" style="text;strokeColor=none;fillColor=none;align=left;verticalAlign=top;spacingLeft=4;spacingRight=4;overflow=hidden;rotatable=0;points=[[0,0.5],[1,0.5]];portConstraint=eastwest;" parent="2" vertex="1">
                    <mxGeometry y="26" width="170" height="26" as="geometry"/>
                </mxCell>
                <mxCell id="4" value="nome: String" style="text;strokeColor=none;fillColor=none;align=left;verticalAlign=top;spacingLeft=4;spacingRight=4;overflow=hidden;rotatable=0;points=[[0,0.5],[1,0.5]];portConstraint=eastwest;" parent="2" vertex="1">
                    <mxGeometry y="52" width="170" height="26" as="geometry"/>
                </mxCell>
                <mxCell id="38" value="cpf: String" style="text;strokeColor=none;fillColor=none;align=left;verticalAlign=top;spacingLeft=4;spacingRight=4;overflow=hidden;rotatable=0;points=[[0,0.5],[1,0.5]];portConstraint=eastwest;" parent="2" vertex="1">
                    <mxGeometry y="78" width="170" height="26" as="geometry"/>
                </mxCell>
                <mxCell id="39" value="data_nascimento: DateTime?" style="text;strokeColor=none;fillColor=none;align=left;verticalAlign=top;spacingLeft=4;spacingRight=4;overflow=hidden;rotatable=0;points=[[0,0.5],[1,0.5]];portConstraint=eastwest;" parent="2" vertex="1">
                    <mxGeometry y="104" width="170" height="26" as="geometry"/>
                </mxCell>
                <mxCell id="40" value="email: String" style="text;strokeColor=none;fillColor=none;align=left;verticalAlign=top;spacingLeft=4;spacingRight=4;overflow=hidden;rotatable=0;points=[[0,0.5],[1,0.5]];portConstraint=eastwest;" parent="2" vertex="1">
                    <mxGeometry y="130" width="170" height="26" as="geometry"/>
                </mxCell>
                <mxCell id="41" value="logradouro: String" style="text;strokeColor=none;fillColor=none;align=left;verticalAlign=top;spacingLeft=4;spacingRight=4;overflow=hidden;rotatable=0;points=[[0,0.5],[1,0.5]];portConstraint=eastwest;" parent="2" vertex="1">
                    <mxGeometry y="156" width="170" height="26" as="geometry"/>
                </mxCell>
                <mxCell id="42" value="num_casa: String" style="text;strokeColor=none;fillColor=none;align=left;verticalAlign=top;spacingLeft=4;spacingRight=4;overflow=hidden;rotatable=0;points=[[0,0.5],[1,0.5]];portConstraint=eastwest;" parent="2" vertex="1">
                    <mxGeometry y="182" width="170" height="26" as="geometry"/>
                </mxCell>
                <mxCell id="43" value="complemento: String?" style="text;strokeColor=none;fillColor=none;align=left;verticalAlign=top;spacingLeft=4;spacingRight=4;overflow=hidden;rotatable=0;points=[[0,0.5],[1,0.5]];portConstraint=eastwest;" parent="2" vertex="1">
                    <mxGeometry y="208" width="170" height="26" as="geometry"/>
                </mxCell>
                <mxCell id="44" value="bairro: String" style="text;strokeColor=none;fillColor=none;align=left;verticalAlign=top;spacingLeft=4;spacingRight=4;overflow=hidden;rotatable=0;points=[[0,0.5],[1,0.5]];portConstraint=eastwest;" parent="2" vertex="1">
                    <mxGeometry y="234" width="170" height="26" as="geometry"/>
                </mxCell>
                <mxCell id="45" value="municipio: String" style="text;strokeColor=none;fillColor=none;align=left;verticalAlign=top;spacingLeft=4;spacingRight=4;overflow=hidden;rotatable=0;points=[[0,0.5],[1,0.5]];portConstraint=eastwest;" parent="2" vertex="1">
                    <mxGeometry y="260" width="170" height="26" as="geometry"/>
                </mxCell>
                <mxCell id="46" value="uf: String" style="text;strokeColor=none;fillColor=none;align=left;verticalAlign=top;spacingLeft=4;spacingRight=4;overflow=hidden;rotatable=0;points=[[0,0.5],[1,0.5]];portConstraint=eastwest;" parent="2" vertex="1">
                    <mxGeometry y="286" width="170" height="26" as="geometry"/>
                </mxCell>
                <mxCell id="47" value="cep: String" style="text;strokeColor=none;fillColor=none;align=left;verticalAlign=top;spacingLeft=4;spacingRight=4;overflow=hidden;rotatable=0;points=[[0,0.5],[1,0.5]];portConstraint=eastwest;" parent="2" vertex="1">
                    <mxGeometry y="312" width="170" height="26" as="geometry"/>
                </mxCell>
                <mxCell id="5" value="celular: String" style="text;strokeColor=none;fillColor=none;align=left;verticalAlign=top;spacingLeft=4;spacingRight=4;overflow=hidden;rotatable=0;points=[[0,0.5],[1,0.5]];portConstraint=eastwest;" parent="2" vertex="1">
                    <mxGeometry y="338" width="170" height="26" as="geometry"/>
                </mxCell>
                <mxCell id="6" value="Produto" style="swimlane;fontStyle=0;childLayout=stackLayout;horizontal=1;startSize=26;fillColor=none;horizontalStack=0;resizeParent=1;resizeParentMax=0;resizeLast=0;collapsible=1;marginBottom=0;" parent="1" vertex="1">
                    <mxGeometry x="300" y="210" width="140" height="234" as="geometry"/>
                </mxCell>
                <mxCell id="7" value="_id: ObjectId" style="text;strokeColor=none;fillColor=none;align=left;verticalAlign=top;spacingLeft=4;spacingRight=4;overflow=hidden;rotatable=0;points=[[0,0.5],[1,0.5]];portConstraint=eastwest;" parent="6" vertex="1">
                    <mxGeometry y="26" width="140" height="26" as="geometry"/>
                </mxCell>
                <mxCell id="8" value="nome: String" style="text;strokeColor=none;fillColor=none;align=left;verticalAlign=top;spacingLeft=4;spacingRight=4;overflow=hidden;rotatable=0;points=[[0,0.5],[1,0.5]];portConstraint=eastwest;" parent="6" vertex="1">
                    <mxGeometry y="52" width="140" height="26" as="geometry"/>
                </mxCell>
                <mxCell id="48" value="marca: String" style="text;strokeColor=none;fillColor=none;align=left;verticalAlign=top;spacingLeft=4;spacingRight=4;overflow=hidden;rotatable=0;points=[[0,0.5],[1,0.5]];portConstraint=eastwest;" parent="6" vertex="1">
                    <mxGeometry y="78" width="140" height="26" as="geometry"/>
                </mxCell>
                <mxCell id="49" value="especificacao: String?" style="text;strokeColor=none;fillColor=none;align=left;verticalAlign=top;spacingLeft=4;spacingRight=4;overflow=hidden;rotatable=0;points=[[0,0.5],[1,0.5]];portConstraint=eastwest;" parent="6" vertex="1">
                    <mxGeometry y="104" width="140" height="26" as="geometry"/>
                </mxCell>
                <mxCell id="50" value="unidade_medida: String" style="text;strokeColor=none;fillColor=none;align=left;verticalAlign=top;spacingLeft=4;spacingRight=4;overflow=hidden;rotatable=0;points=[[0,0.5],[1,0.5]];portConstraint=eastwest;" parent="6" vertex="1">
                    <mxGeometry y="130" width="140" height="26" as="geometry"/>
                </mxCell>
                <mxCell id="51" value="preco_unitario: Number" style="text;strokeColor=none;fillColor=none;align=left;verticalAlign=top;spacingLeft=4;spacingRight=4;overflow=hidden;rotatable=0;points=[[0,0.5],[1,0.5]];portConstraint=eastwest;" parent="6" vertex="1">
                    <mxGeometry y="156" width="140" height="26" as="geometry"/>
                </mxCell>
                <mxCell id="55" value="qtd_estoque: Number" style="text;strokeColor=none;fillColor=none;align=left;verticalAlign=top;spacingLeft=4;spacingRight=4;overflow=hidden;rotatable=0;points=[[0,0.5],[1,0.5]];portConstraint=eastwest;" parent="6" vertex="1">
                    <mxGeometry y="182" width="140" height="26" as="geometry"/>
                </mxCell>
                <mxCell id="9" value="categoria: Categoria" style="text;strokeColor=none;fillColor=none;align=left;verticalAlign=top;spacingLeft=4;spacingRight=4;overflow=hidden;rotatable=0;points=[[0,0.5],[1,0.5]];portConstraint=eastwest;" parent="6" vertex="1">
                    <mxGeometry y="208" width="140" height="26" as="geometry"/>
                </mxCell>
                <mxCell id="10" value="Categoria" style="swimlane;fontStyle=0;childLayout=stackLayout;horizontal=1;startSize=26;fillColor=none;horizontalStack=0;resizeParent=1;resizeParentMax=0;resizeLast=0;collapsible=1;marginBottom=0;" parent="1" vertex="1">
                    <mxGeometry x="300" y="40" width="140" height="78" as="geometry"/>
                </mxCell>
                <mxCell id="11" value="_id: ObjectId" style="text;strokeColor=none;fillColor=none;align=left;verticalAlign=top;spacingLeft=4;spacingRight=4;overflow=hidden;rotatable=0;points=[[0,0.5],[1,0.5]];portConstraint=eastwest;" parent="10" vertex="1">
                    <mxGeometry y="26" width="140" height="26" as="geometry"/>
                </mxCell>
                <mxCell id="12" value="descricao: String" style="text;strokeColor=none;fillColor=none;align=left;verticalAlign=top;spacingLeft=4;spacingRight=4;overflow=hidden;rotatable=0;points=[[0,0.5],[1,0.5]];portConstraint=eastwest;" parent="10" vertex="1">
                    <mxGeometry y="52" width="140" height="26" as="geometry"/>
                </mxCell>
                <mxCell id="14" value="Venda" style="swimlane;fontStyle=0;childLayout=stackLayout;horizontal=1;startSize=26;fillColor=none;horizontalStack=0;resizeParent=1;resizeParentMax=0;resizeLast=0;collapsible=1;marginBottom=0;" parent="1" vertex="1">
                    <mxGeometry x="170" y="560" width="140" height="156" as="geometry"/>
                </mxCell>
                <mxCell id="15" value="_id: ObjectId&#10;" style="text;strokeColor=none;fillColor=none;align=left;verticalAlign=top;spacingLeft=4;spacingRight=4;overflow=hidden;rotatable=0;points=[[0,0.5],[1,0.5]];portConstraint=eastwest;" parent="14" vertex="1">
                    <mxGeometry y="26" width="140" height="26" as="geometry"/>
                </mxCell>
                <mxCell id="16" value="num_venda: Number" style="text;strokeColor=none;fillColor=none;align=left;verticalAlign=top;spacingLeft=4;spacingRight=4;overflow=hidden;rotatable=0;points=[[0,0.5],[1,0.5]];portConstraint=eastwest;" parent="14" vertex="1">
                    <mxGeometry y="52" width="140" height="26" as="geometry"/>
                </mxCell>
                <mxCell id="17" value="data_hora: DateTime" style="text;strokeColor=none;fillColor=none;align=left;verticalAlign=top;spacingLeft=4;spacingRight=4;overflow=hidden;rotatable=0;points=[[0,0.5],[1,0.5]];portConstraint=eastwest;" parent="14" vertex="1">
                    <mxGeometry y="78" width="140" height="26" as="geometry"/>
                </mxCell>
                <mxCell id="53" value="itens: [Produto]" style="text;strokeColor=none;fillColor=none;align=left;verticalAlign=top;spacingLeft=4;spacingRight=4;overflow=hidden;rotatable=0;points=[[0,0.5],[1,0.5]];portConstraint=eastwest;" parent="14" vertex="1">
                    <mxGeometry y="104" width="140" height="26" as="geometry"/>
                </mxCell>
                <mxCell id="54" value="cliente: Cliente" style="text;strokeColor=none;fillColor=none;align=left;verticalAlign=top;spacingLeft=4;spacingRight=4;overflow=hidden;rotatable=0;points=[[0,0.5],[1,0.5]];portConstraint=eastwest;" parent="14" vertex="1">
                    <mxGeometry y="130" width="140" height="26" as="geometry"/>
                </mxCell>
                <mxCell id="18" value="Fornecedor" style="swimlane;fontStyle=0;childLayout=stackLayout;horizontal=1;startSize=26;fillColor=none;horizontalStack=0;resizeParent=1;resizeParentMax=0;resizeLast=0;collapsible=1;marginBottom=0;" parent="1" vertex="1">
                    <mxGeometry x="560" y="210" width="140" height="364" as="geometry"/>
                </mxCell>
                <mxCell id="19" value="_id: ObjectId" style="text;strokeColor=none;fillColor=none;align=left;verticalAlign=top;spacingLeft=4;spacingRight=4;overflow=hidden;rotatable=0;points=[[0,0.5],[1,0.5]];portConstraint=eastwest;" parent="18" vertex="1">
                    <mxGeometry y="26" width="140" height="26" as="geometry"/>
                </mxCell>
                <mxCell id="20" value="razao_social: String" style="text;strokeColor=none;fillColor=none;align=left;verticalAlign=top;spacingLeft=4;spacingRight=4;overflow=hidden;rotatable=0;points=[[0,0.5],[1,0.5]];portConstraint=eastwest;" parent="18" vertex="1">
                    <mxGeometry y="52" width="140" height="26" as="geometry"/>
                </mxCell>
                <mxCell id="21" value="nome_fantasia: String?&#10;" style="text;strokeColor=none;fillColor=none;align=left;verticalAlign=top;spacingLeft=4;spacingRight=4;overflow=hidden;rotatable=0;points=[[0,0.5],[1,0.5]];portConstraint=eastwest;" parent="18" vertex="1">
                    <mxGeometry y="78" width="140" height="26" as="geometry"/>
                </mxCell>
                <mxCell id="56" value="cnpj: String" style="text;strokeColor=none;fillColor=none;align=left;verticalAlign=top;spacingLeft=4;spacingRight=4;overflow=hidden;rotatable=0;points=[[0,0.5],[1,0.5]];portConstraint=eastwest;" parent="18" vertex="1">
                    <mxGeometry y="104" width="140" height="26" as="geometry"/>
                </mxCell>
                <mxCell id="65" value="email: String" style="text;strokeColor=none;fillColor=none;align=left;verticalAlign=top;spacingLeft=4;spacingRight=4;overflow=hidden;rotatable=0;points=[[0,0.5],[1,0.5]];portConstraint=eastwest;" parent="18" vertex="1">
                    <mxGeometry y="130" width="140" height="26" as="geometry"/>
                </mxCell>
                <mxCell id="66" value="logradouro: String" style="text;strokeColor=none;fillColor=none;align=left;verticalAlign=top;spacingLeft=4;spacingRight=4;overflow=hidden;rotatable=0;points=[[0,0.5],[1,0.5]];portConstraint=eastwest;" parent="18" vertex="1">
                    <mxGeometry y="156" width="140" height="26" as="geometry"/>
                </mxCell>
                <mxCell id="67" value="num_casa: String" style="text;strokeColor=none;fillColor=none;align=left;verticalAlign=top;spacingLeft=4;spacingRight=4;overflow=hidden;rotatable=0;points=[[0,0.5],[1,0.5]];portConstraint=eastwest;" parent="18" vertex="1">
                    <mxGeometry y="182" width="140" height="26" as="geometry"/>
                </mxCell>
                <mxCell id="68" value="complemento: String?" style="text;strokeColor=none;fillColor=none;align=left;verticalAlign=top;spacingLeft=4;spacingRight=4;overflow=hidden;rotatable=0;points=[[0,0.5],[1,0.5]];portConstraint=eastwest;" parent="18" vertex="1">
                    <mxGeometry y="208" width="140" height="26" as="geometry"/>
                </mxCell>
                <mxCell id="69" value="bairro: String" style="text;strokeColor=none;fillColor=none;align=left;verticalAlign=top;spacingLeft=4;spacingRight=4;overflow=hidden;rotatable=0;points=[[0,0.5],[1,0.5]];portConstraint=eastwest;" parent="18" vertex="1">
                    <mxGeometry y="234" width="140" height="26" as="geometry"/>
                </mxCell>
                <mxCell id="75" value="municipio: String" style="text;strokeColor=none;fillColor=none;align=left;verticalAlign=top;spacingLeft=4;spacingRight=4;overflow=hidden;rotatable=0;points=[[0,0.5],[1,0.5]];portConstraint=eastwest;" parent="18" vertex="1">
                    <mxGeometry y="260" width="140" height="26" as="geometry"/>
                </mxCell>
                <mxCell id="78" value="celular: String" style="text;strokeColor=none;fillColor=none;align=left;verticalAlign=top;spacingLeft=4;spacingRight=4;overflow=hidden;rotatable=0;points=[[0,0.5],[1,0.5]];portConstraint=eastwest;" parent="18" vertex="1">
                    <mxGeometry y="286" width="140" height="26" as="geometry"/>
                </mxCell>
                <mxCell id="77" value="cep: String" style="text;strokeColor=none;fillColor=none;align=left;verticalAlign=top;spacingLeft=4;spacingRight=4;overflow=hidden;rotatable=0;points=[[0,0.5],[1,0.5]];portConstraint=eastwest;" parent="18" vertex="1">
                    <mxGeometry y="312" width="140" height="26" as="geometry"/>
                </mxCell>
                <mxCell id="76" value="uf: String" style="text;strokeColor=none;fillColor=none;align=left;verticalAlign=top;spacingLeft=4;spacingRight=4;overflow=hidden;rotatable=0;points=[[0,0.5],[1,0.5]];portConstraint=eastwest;" parent="18" vertex="1">
                    <mxGeometry y="338" width="140" height="26" as="geometry"/>
                </mxCell>
                <mxCell id="23" value="" style="endArrow=diamondThin;endFill=1;endSize=24;html=1;exitX=0.5;exitY=0;exitDx=0;exitDy=0;entryX=0.25;entryY=0;entryDx=0;entryDy=0;" parent="1" source="2" target="14" edge="1">
                    <mxGeometry width="160" relative="1" as="geometry">
                        <mxPoint x="120" y="390" as="sourcePoint"/>
                        <mxPoint x="280" y="390" as="targetPoint"/>
                        <Array as="points">
                            <mxPoint x="25" y="220"/>
                            <mxPoint x="205" y="220"/>
                        </Array>
                    </mxGeometry>
                </mxCell>
                <mxCell id="30" value="1" style="edgeLabel;html=1;align=center;verticalAlign=middle;resizable=0;points=[];" parent="23" vertex="1" connectable="0">
                    <mxGeometry x="-0.9366" y="1" relative="1" as="geometry">
                        <mxPoint x="11" as="offset"/>
                    </mxGeometry>
                </mxCell>
                <mxCell id="31" value="0..*" style="edgeLabel;html=1;align=center;verticalAlign=middle;resizable=0;points=[];" parent="23" vertex="1" connectable="0">
                    <mxGeometry x="0.7937" y="-1" relative="1" as="geometry">
                        <mxPoint x="16" as="offset"/>
                    </mxGeometry>
                </mxCell>
                <mxCell id="25" value="" style="endArrow=diamondThin;endFill=1;endSize=24;html=1;exitX=0.75;exitY=0;exitDx=0;exitDy=0;entryX=0.586;entryY=-0.028;entryDx=0;entryDy=0;entryPerimeter=0;" parent="1" source="6" target="79" edge="1">
                    <mxGeometry width="160" relative="1" as="geometry">
                        <mxPoint x="430" y="360" as="sourcePoint"/>
                        <mxPoint x="480" y="610" as="targetPoint"/>
                        <Array as="points">
                            <mxPoint x="405" y="190"/>
                            <mxPoint x="480" y="190"/>
                            <mxPoint x="480" y="520"/>
                            <mxPoint x="480" y="600"/>
                        </Array>
                    </mxGeometry>
                </mxCell>
                <mxCell id="34" value="1..*" style="edgeLabel;html=1;align=center;verticalAlign=middle;resizable=0;points=[];" parent="25" vertex="1" connectable="0">
                    <mxGeometry x="-0.8827" relative="1" as="geometry">
                        <mxPoint x="5" y="10" as="offset"/>
                    </mxGeometry>
                </mxCell>
                <mxCell id="35" value="0..*" style="edgeLabel;html=1;align=center;verticalAlign=middle;resizable=0;points=[];" parent="25" vertex="1" connectable="0">
                    <mxGeometry x="0.8603" y="-2" relative="1" as="geometry">
                        <mxPoint x="17" as="offset"/>
                    </mxGeometry>
                </mxCell>
                <mxCell id="26" value="" style="endArrow=diamondThin;endFill=1;endSize=24;html=1;entryX=0.25;entryY=0;entryDx=0;entryDy=0;exitX=0.25;exitY=0;exitDx=0;exitDy=0;" parent="1" source="10" target="6" edge="1">
                    <mxGeometry width="160" relative="1" as="geometry">
                        <mxPoint x="120" y="130" as="sourcePoint"/>
                        <mxPoint x="280" y="130" as="targetPoint"/>
                        <Array as="points">
                            <mxPoint x="335" y="20"/>
                            <mxPoint x="280" y="20"/>
                            <mxPoint x="280" y="170"/>
                            <mxPoint x="335" y="170"/>
                        </Array>
                    </mxGeometry>
                </mxCell>
                <mxCell id="32" value="0..*" style="edgeLabel;html=1;align=center;verticalAlign=middle;resizable=0;points=[];" parent="26" vertex="1" connectable="0">
                    <mxGeometry x="0.8069" relative="1" as="geometry">
                        <mxPoint x="-25" y="11" as="offset"/>
                    </mxGeometry>
                </mxCell>
                <mxCell id="37" value="1" style="edgeLabel;html=1;align=center;verticalAlign=middle;resizable=0;points=[];" parent="26" vertex="1" connectable="0">
                    <mxGeometry x="-0.8179" relative="1" as="geometry">
                        <mxPoint y="10" as="offset"/>
                    </mxGeometry>
                </mxCell>
                <mxCell id="27" value="" style="endArrow=diamondThin;endFill=1;endSize=24;html=1;entryX=0.5;entryY=0;entryDx=0;entryDy=0;exitX=0.5;exitY=0;exitDx=0;exitDy=0;" parent="1" source="18" target="6" edge="1">
                    <mxGeometry width="160" relative="1" as="geometry">
                        <mxPoint x="320" y="190" as="sourcePoint"/>
                        <mxPoint x="480" y="190" as="targetPoint"/>
                        <Array as="points">
                            <mxPoint x="630" y="170"/>
                            <mxPoint x="370" y="170"/>
                        </Array>
                    </mxGeometry>
                </mxCell>
                <mxCell id="33" value="0..*" style="edgeLabel;html=1;align=center;verticalAlign=middle;resizable=0;points=[];" parent="27" vertex="1" connectable="0">
                    <mxGeometry x="0.6484" y="-1" relative="1" as="geometry">
                        <mxPoint y="-9" as="offset"/>
                    </mxGeometry>
                </mxCell>
                <mxCell id="36" value="1" style="edgeLabel;html=1;align=center;verticalAlign=middle;resizable=0;points=[];" parent="27" vertex="1" connectable="0">
                    <mxGeometry x="-0.9231" y="1" relative="1" as="geometry">
                        <mxPoint x="11" as="offset"/>
                    </mxGeometry>
                </mxCell>
                <mxCell id="79" value="itensVenda" style="swimlane;fontStyle=0;childLayout=stackLayout;horizontal=1;startSize=26;fillColor=none;horizontalStack=0;resizeParent=1;resizeParentMax=0;resizeLast=0;collapsible=1;marginBottom=0;" vertex="1" parent="1">
                    <mxGeometry x="400" y="640" width="140" height="104" as="geometry"/>
                </mxCell>
                <mxCell id="83" value="num_item: Number" style="text;strokeColor=none;fillColor=none;align=left;verticalAlign=top;spacingLeft=4;spacingRight=4;overflow=hidden;rotatable=0;points=[[0,0.5],[1,0.5]];portConstraint=eastwest;" vertex="1" parent="79">
                    <mxGeometry y="26" width="140" height="26" as="geometry"/>
                </mxCell>
                <mxCell id="81" value="quantidade: number" style="text;strokeColor=none;fillColor=none;align=left;verticalAlign=top;spacingLeft=4;spacingRight=4;overflow=hidden;rotatable=0;points=[[0,0.5],[1,0.5]];portConstraint=eastwest;" vertex="1" parent="79">
                    <mxGeometry y="52" width="140" height="26" as="geometry"/>
                </mxCell>
                <mxCell id="82" value="produto: Produto" style="text;strokeColor=none;fillColor=none;align=left;verticalAlign=top;spacingLeft=4;spacingRight=4;overflow=hidden;rotatable=0;points=[[0,0.5],[1,0.5]];portConstraint=eastwest;" vertex="1" parent="79">
                    <mxGeometry y="78" width="140" height="26" as="geometry"/>
                </mxCell>
                <mxCell id="86" value="" style="endArrow=diamondThin;endFill=1;endSize=24;html=1;exitX=0.579;exitY=-0.026;exitDx=0;exitDy=0;exitPerimeter=0;" edge="1" parent="1" source="14">
                    <mxGeometry width="160" relative="1" as="geometry">
                        <mxPoint x="260" y="520" as="sourcePoint"/>
                        <mxPoint x="410" y="630" as="targetPoint"/>
                        <Array as="points">
                            <mxPoint x="250" y="520"/>
                            <mxPoint x="410" y="520"/>
                        </Array>
                    </mxGeometry>
                </mxCell>
                <mxCell id="92" value="" style="shape=stencil(lZ3Z0hw3joWfRrcVyZ287uU9HGG5pWiP5ZDlme63HzIUWX/lOfl/tO60AJWZXEDg4AD8kP72x6effv/4IR5/fPv65d8f/+/zz98+fUh//xDj598+ffz6+dv804f0jw/pb798+frxX1+//Pnbz9///vtPS3L96X++/O/6hf9810uPcSylePz3+z+UR/v+D//8Lv7r598u4jVexOujRBJP7SLeHgV/PfSLeH/UTuJHvYiPR8OXOcJFPBw7+XSVD4+eUL5c5Z9PfE/+OjghPyLLX0cnlEcoKD+u8vURGslHGZ/2SBUnV763PxLObrlOVxiPiO/fruMfj0fC+er5Kh/OJ74nf33/GB8Nx0fl57/80O/nx+D3v47P3IsDl7/Kt3PF/kX5/oPy4xH4e6/y6dish3Fdbyk8Io7/uK7/FB8Rxifr+k9zhcP75/PpT/n8yPj7+Tq/qTzKIPkiv19xveXz157y7TH490V+PBLYkyl/Hc98PCKsB5cPO/nr9+Z4HgfvyV/XT56nDf/+db/nclrU9+SvZ1eehxf/vsi3R+fxFPmO9iGfT38evcfjyD/wvSU8Auyv5+p9ysfNeojX8S/TYqN9HvI+eXNc1+t6KOVR0Z4UcU3qo6I9SfI+DdfP9Dau9qd0nN94Wu+n/MD5nafJdT/WcD7xPfmrPakRz+uo52NNOL8u/7Rg78lf10MtjwznV9Tzrtbzi94bTxmfad/Q/geR351H4p+0eR7h+szX723hXLHvyYtz+xyB9+Sv+7HNE5N/X95/5z/o905/j9f/dTzb9PfgfDH/tvVH5v0i4znOHfrX/NV+4Hlt39vD+Qvv+ZNZ5Wn88+ltPuUj+v9Zv7c/PdJb+XKO9lP+aeFv5evjkPeZ+xG+t+p52tn/b4+YVZ7s4TwNr/a5N7QP/dx9T/l+zuCt/ND4qw9cb+McjWc4eOD6H2p/pjzt3xkuluuBMQIekDNelB0zIkY8K8CUJzxj3HuFqDZrKhSwcTMkDU0VyKmcCv06C4Oj1BnE6jRk3PYzik2HKmRYpyuMNQXaOFNBduZ6AngSM/AVUzEVcB66+irjaW3uFcYZWr8oZFCYsa9Y66kQ4RumwkiqcMDSiLeLj+x7PN2rVwV6pWQbaKOQT4fmZQPREThtqu+4zgpixMbTTbpXqOqFLwV6QlOzt3ulrnZvJIzTY9fAeyQMtBZOZk+g1ToDeZ3pjKHWjOR1lOZUki8SbT/k07TdKyQb1sxoTza0cIYr9NHZ9kNGf3aG/wKOTgUEiKpZ78KIYVOXZCoEcmn76SG/KKAPPM4N+aJQ6ZWGRjlToRNqcqgbPKY9p7B3Rk1RFTL5YfE0jC8KBKTlZAdKQ08jG2o+Gm6g/IyMXxQGKRQFWwaDdfkZG78q0BPaufpfFQhO6PZK0wMkPOrprr2OEnxDOW7mgRCaqaDndEMIsQSN2QZjpiWqUzzXEjmJJd2sVsqolGRuaD3tyL1CVpxgKhRYraWYqaxojEtVZGTuaVqtxR2sgqHkQmbc8sEWLV2DpcHBcBkaTS5jDE+oh1k+tt5TwT1jWho1PGoxBQr44t2BQgrpBMT/uoJ7xvjR+QyZX+eBPrqYr1EwKqvVXOmCe7o2xe3X4qOP7nY+FAxEp8KwJ9D5UMcJ7L8okCFrhwVNjI22cAaSLwoNlneLih6sV4JRatGWd8HgtU0f0qwG4TEt2wnERqCVG/eHzrg3AOx1tdIrVc0xLQV6goEgawPRE/oJGbwqgCFr4xHNCJCv0Y8by0cwxVQY9gRK3PVwLrUXhQDf0KOZe0YderLAL6G575bs2yvons7nDrlXKJquXEAIKdSb84H81t40gbfBNXo/8bbXJ9ArjXO7vH40zfQ4F/Mr6kCYmmNkEaOsEQyQimgEpoL63gFpAcMxsgMxsjdQ4gV4pB23MDdBcvsJvtwr5JO48aKAUGVW12EuFsROiw7rXI4Inhb7Bj6BhqFwc0sRPD4sQum8RZdrLh8d0RiPpq7DQvhpprtSgvrBM93VLk3zTN79VMjXV5oHQAXLNxUkCzuPGMpC+TfMQ6zRTLfzjZ8KBeOHFQxLoivzBmrKJGoJQ5oVn0tqiak4K+KR3FXgV6oKMq9k4GZ5X23rdOoIOVkhkqQ/Oz+hWH51u6frdVgrAyHLS72a++mNE11veXjXg336+zhxRY/dGVGg1ch6KNa4U5A9vcIo2qJZSYR1s6eTunArr0/zkDQWLUz0WKC1MB8am8qoy3tF2PQNUc39VCCAdp6ZAiKUgumEdciKQsawbCXT5BsSJo7WqSx8mMivdKh3vwgx5GAN/eg82A0dyl9dlB7yyIYeWblheDzP/RZVgUg93YCQXHEeetPFl+dM00c341VlNGRTQXZcThjtLs/4uuNy5JDmiVc9FQJGWb1ohJKPE+l4T0Hi6alAZJ3p7MgpmgayFbrlH1JnZz3pkZUaZjimdyQBeGLceyqICzcVKHE03SmhuKWCKZF+KL6UOMRflI/r4ksZMxzT/5J4OiVEf1rXtE6KSNtslo9LAZ2T6bBJDLSIrUSkMPg0HeiRTQU52ONAKkuz4HUqkG1dUMvVasSOIEJ7ohhPhYa+dzN6zSKgML4k8UOsmMVvUQmKq7iBhjWe7tSLAqWmptMpyElkqGUqSMS+WJQMDMpqXTR9esKh2H2M6BlPt1YilBjQaky3tpkCzcNUEMsXD1ytyw8OqkDGuFo4EAYasukHC4gQOqampkJMqkB2qRpbOjSMFBcU31QBv8HA/vAMmN9LJ4hdChVzu9PTlj0dmFE4FaIoFB7WQw1ZYDd0uuZVZjpjPD1dczECUyGwghBtQjoDtXuFpth9SAiflqrndIhol5Yvn1WB9kMpVpoTsPCqGBQfDrTexTLg4Xlyv6egAC0WVyyu+nUpdQyZpusv0UNHcnA5dLvx9pzy4nc3/N4ZWYjhrgjzZyNeVC5WsSTWk8l0L9/0bGMiyOITSESJxiUXzZxkfh9j/WUk9+esfl7eUTTEUGRcD9mq8RKTG6KauoR8pRyUjctsvBl+aDUbRp4z+pDxj4jcvNUGvckj36orBSxycWBTdCvifp/ygrdFLvYw7hTT8JIR/ZiFl7K5dojATHnZjwn3y4xShBzDdM4U1UJzsccMObrJM2NPkIuN/KGEvcTFIcY5TGd52L18V1oMk+kXa1JgDnTdo7EG2J5Mc5zUvhEsH433kLm4qGh+Pp8n7L18NkiEmbHJUB0MPN62x4s8jWfQGHYrb/OF73P4fNHvzwCg6PmC8l0ZepzHn772sPllSnnQ8SF/I5h9Yz93Odo6vxv544fks7qUG/mkUeLme5OvfxzPaHg0pu+nAyxOd8FEdjBSRMFiueX+qjym7TSnxrXeFnMz9GHGsGIY1jSSZAzaErkNXUlbmY2jHXUE2old3TtKGn11tPtJzVrf9BQQNKUjrzFaiRMC4UFntfOaN3YfupDBGF+IQjqXFjeI07gxJD0UX+8IARmHidHHw/L4WOlm4g0BXYPUuE7y8N1E03Qopl4xmXhYVTG+ux2zdbPEkr4MpU0s6G5sVDWmbOgDBs2NcX1w0BOc8+8WkHUMIIIVqCBzKhiFGuFC5xIjunDou3Ml9OFYCs2q5VU7HmWH1aUi/GU864aO7qELuGFqxI7htrEEgopU9KJ/UDwoaFwxRrJsQsVZjcoJK5jMTorzF3z3rONeNs1KJOHKnKJyg0YREq0+AYNR1fL8aPSaZfkRLO1K3tuQX63NDTPGbuJ8OuQPffmETaFC0JxvRIJCMK4v10eGqHkPxn2m3y8bNiIJKljXoIjWJlgehpugBKNAbeUNd0P5qm5WRAc0NDX1kddDV1xgM/5GCY58JltpA2fPo7F6NvJ2zm7ko/IlN/KG827lDcdE+WxZaky/Ljup8jRfsVpiHtk80XCHiHFyNDpp4CYuVnwckJO47JtkLbkpnRHKAzctC5pXCFxSGy23hn5dsi49Bzdlsa4vxw53Fpzr4CY0huMcuH9T0XzogfOVqnbx2jTha7rfDzwdU1fm4sHjb/bq4Pm1PNyB52M+dD8eSCfKQbnOBzcVC1pAd2B2Odt5yhzHnNTXD/w+2bpcctMyI/BGbkJmpGU+r3PVPGvEGpjcdP1wnmzxMaWLIOZdstPFkK+ch5Y6ZVxvxcJ/ru5aFFfp0saEiaDnF5d1rLy7xiy0f6e8+GPcpK1YXrZhnrtktf8d9/uiMWtYj99brPwam0quHnQaelOeoDSjYhzYtak0I6wcGNeVrlXC02cnqLpY6jdwI6x6aPgVOPlbDTyfChTke2l0SMwpM/g/cDPWqSD7PmQOOY1uGDiDUe3kDlydWq1ZTSjYA2jVUg9VICCnVjUuoXKLMcuKzvgjwvZf3L6oCjv2oCh0HtZhDt3gVxq2gQbzdQ9NDS2fiHiiwXx2PpRbVCDoDet5T0HZB1wQ1ZKapXVO0Tdk7ZYZmeXfigEHnEGbChoJFayradZ2YuFlRCE2W7yiHa7WFmctckvXZo3A5nFCNJlmjcDiYJKylXenA/mJ3fDTxOfDVJDM/1t3pnuFoI3GEzci7VZMNKMesnw9avYzJUzydevdnrhHXDfrndgY96xbdLVzYoUuo1QxMurWhmWVZ1CZTLEnNPStetVYc0ZXhMJ2q7BN3GJxKoivkbmnarcGVDMAonhqKsjELaYdzbQ158iJ8dihli9vWgV42Rg3SRmHEt7zppbayKWZW/qMQ736xe/kqnmxrZkzqsPOuDy4cNkC29WdiYBuQ+5WrMJFjhI6zOCDep4M61i7og+u7JSWu4VTAcPoBIWL61bPCMmTVIyHh3UOmwECPsHO6RkgYKFmsb7iHAKtBm+Sgmbu96qltk7Y1E5zNXgThcj9EQxVr8zBH1WdxJq5i8TTs3gqFN5ATf3WutnTTRlflfvpDuvgNp1rNALNuANj9wQlyTP6N7qV2TMcPKwdTuNLHUZXXmvjWx3GMPbGpnB5KALS+J6VqSAQV+OS3KkgGNr0MzdP0Fbanak/h2fZufn2eifp/nwgijAVlD/BNSZjqIc13UB8pa7nbk/8StY7o28bVUgVS+dOYGtTW4/sTRsJHVYmJLz1tnxRwB4m3ha8Y4ZqdYUQnszAmGaYp7v8FbJk3rY3cE+fZA2lGIUexssbz9sW3vMdtHllQhLXajNkfbooMeENEkbe+nDeGW/T78B7s3L7AnFn5mIhCmDv9koVN1A3sHIw09QjjtUWiL6hWgdbvnLMK/lX7xeqUc+649Yo0RPsYqo3B+e9cFd75G56NoSbYUW+b7hpeYstGCziWBNHwMZQ3G65UASdeCdhbrU6jzRxjQfTkFszCirb1oUXebtYQqQMcF0HAGNeyrllruj0RbQjGzt9zftec+TXok1c49aSlhEf3MNkunhCiBod3fvpREYbVorAp5uqzY0bMrqmI6x96zbV194TlNtuVctzb4a1VvUSB6M5tVif34aYV7ULSEZDX7pmu1OAN9BNf9nGBeHewXaj4D1yNwrOnG0I/9z0+W1cTD2so/NGod8sbxrWGdFrT1A2AquC3F6JoMRVQW5bFGvUi7lwHUHjYn26Bje6K5axWP4+V4R3+wZyEou1t5khCHGfinXnGMzaLgbDDUb7s985MxBlzsPcn4GO7qoLt29Anq8BG4ObYuWq6OZLtHmvka2r7uDu93bV4+CrXbPHA9wAxMu3R+cyo6Cx5eDygtU/ylrN05mVhrVObXz/Xr/zTvj6CB1WNq7JyDWbmxRStSCo8h1nxY5RvnQqZesyzQUwydcShyjJHabK9xoGq5ziqClZDc+omEWJRmJ76756r9DNVjJ932mfg7kIsZnTxyhZrHfNu6m8oWi10OD7PWO2kL3wBYrZTF9BLDEaWX0UPEaj0VR2CsE83Y3CcdNqHksUrbpn05t+tVKyb6AtGiyFt7nhJTRrQF4RkQqWx39LANwrGGt6mRkCUIu5ZGzIwq1domE14uVbU9t7hXRzFQnNtJdIL6yQaiXckBW8QXUVk3RVIIcpHDc3WpD/E6xUcyQ8gRzySgy1mKGMm+If9e0DeiaWchkHXyig/l4f6Nlb57O3Hu/vyGtv8452vmgypDfmK2ubmM4Fp9m+l082a2PRGTRNymXpmz4fChF1LteK6gx37rsTbHwCosRB28R0po+Gmwbl2Lfgpj95xPeX8W9841Iwum9lC6FtehpfIhK0/GRzqa7LRwwiXT5g/GXlco35/cFyuEyzCNbSmy/hDWqvKqOwVs5Q60ZeIoS66cOhbmNNfBCbPPd5Mnp8DXyZqHp0lTPcwS4ZZ7JE0PKZwtio9+XmEM1qhjeNv6OOZ8kY99rlGSWhPbfyqMKXJkf12Qufp3Zp+MJg8NJtOe/y2FxSL/5G7ptLw/X3G+aCXL7wbaDWVo9v07VLt3NEf8nGP4fN/EpmKh/YzcXkE5Oxo7ZVSttLxq/rPzEGEpWlljizFq1t2SYuVjxjFfRhxxhtA8f+atTzfXFzsUmA9tMOCI9HY0iPjX1Q+Y7no8s3PO9cnvPFLs80XpfP3JfOytUTxgsuHzfrWfJQ68TB75VGOfHA9Wm3J61qCvQ3tN9ux/Vj591qSoz+iVaosD20jjOBbx0KGseHhFk3f/+46dmhVULc6z1o1mNGuOwPa/zI5dsKKjDmbNahctNB/dgNqKhrLWO1kt2Swl07rJCfGzImzXUyNczKaDOCZMm79bF4sZfBdxdsKWOq2UjJGU1y0lw53+iZ9ETn+zzthtHCF4GbP4hsH2tDXTBa34rPP/z+07dP3//yy+dff/3j29cv//74+v+/fPn68V9fv/z528/Pf/rj00+/f5x/+38=);lineShape=1;" vertex="1" parent="1">
                    <mxGeometry x="128.6961518270873" y="456.4921852908276" width="498.5398386045633" height="346.9832567673285" as="geometry"/>
                </mxCell>
            </root>
        </mxGraphModel>
    </diagram>
</mxfile>